<?xml version="1.0" encoding="UTF-8" standalone="no"?>
<svg xmlns="http://www.w3.org/2000/svg" xmlns:xlink="http://www.w3.org/1999/xlink" width="730" height="790" version="1.0">
  <defs>
    <filter id="O">
      <feGaussianBlur stdDeviation=".34345844"/>
    </filter>
    <filter id="N">
      <feGaussianBlur stdDeviation=".34345844"/>
    </filter>
    <filter id="M">
      <feGaussianBlur stdDeviation=".34345844"/>
    </filter>
    <filter id="L">
      <feGaussianBlur stdDeviation=".34345844"/>
    </filter>
    <filter id="K" width="1.1594471" height="1.9429899" x="-.07972356" y="-.47149503">
      <feGaussianBlur stdDeviation=".51825465"/>
    </filter>
    <filter id="J" width="1.059496" height="1.469188" x="-.02974804" y="-.23459397">
      <feGaussianBlur stdDeviation=".51825465"/>
    </filter>
    <filter id="I" width="1.0493346" height="1.333023" x="-.02466735" y="-.16651145">
      <feGaussianBlur stdDeviation=".51825465"/>
    </filter>
    <filter id="H" width="1.0516353" height="1.3494288" x="-.02581763" y="-.1747144">
      <feGaussianBlur stdDeviation=".51825465"/>
    </filter>
    <filter id="E">
      <feGaussianBlur stdDeviation=".58960946"/>
    </filter>
    <filter id="R">
      <feGaussianBlur stdDeviation=".24469115"/>
    </filter>
    <filter id="S">
      <feGaussianBlur stdDeviation=".24469115"/>
    </filter>
    <filter id="T">
      <feGaussianBlur stdDeviation=".24469115"/>
    </filter>
    <filter id="U">
      <feGaussianBlur stdDeviation=".24469115"/>
    </filter>
    <filter id="V">
      <feGaussianBlur stdDeviation=".24469115"/>
    </filter>
    <filter id="W">
      <feGaussianBlur stdDeviation=".24469115"/>
    </filter>
    <filter id="X">
      <feGaussianBlur stdDeviation=".24469115"/>
    </filter>
    <filter id="Y">
      <feGaussianBlur stdDeviation=".24469115"/>
    </filter>
    <filter id="ai">
      <feGaussianBlur stdDeviation=".24469115"/>
    </filter>
    <filter id="ah">
      <feGaussianBlur stdDeviation=".24469115"/>
    </filter>
    <filter id="ag">
      <feGaussianBlur stdDeviation=".24469115"/>
    </filter>
    <filter id="af">
      <feGaussianBlur stdDeviation=".24469115"/>
    </filter>
    <filter id="ae">
      <feGaussianBlur stdDeviation=".24469115"/>
    </filter>
    <filter id="ad">
      <feGaussianBlur stdDeviation=".24469115"/>
    </filter>
    <filter id="ac">
      <feGaussianBlur stdDeviation=".24469115"/>
    </filter>
    <filter id="ab">
      <feGaussianBlur stdDeviation=".24469115"/>
    </filter>
    <filter id="aa">
      <feGaussianBlur stdDeviation=".24469115"/>
    </filter>
    <filter id="Q">
      <feGaussianBlur stdDeviation=".24469115"/>
    </filter>
    <filter id="Z">
      <feGaussianBlur stdDeviation=".24469115"/>
    </filter>
    <filter id="au" width="1.5690395" height="1.0583102" x="-.28451976" y="-.02915512">
      <feGaussianBlur stdDeviation=".84570888"/>
    </filter>
    <filter id="at" width="1.7868681" height="1.0555632" x="-.39343405" y="-.02778159">
      <feGaussianBlur stdDeviation=".84570888"/>
    </filter>
    <filter id="as" width="1.300963" height="1.0473301" x="-.15048157" y="-.02366509">
      <feGaussianBlur stdDeviation=".84570888"/>
    </filter>
    <filter id="aq" width="1.2957304" height="1.0453694" x="-.14786515" y="-.02268472">
      <feGaussianBlur stdDeviation=".84570888"/>
    </filter>
    <filter id="ar" width="1.4342327" height="1.0507787" x="-.21711634" y="-.02538936">
      <feGaussianBlur stdDeviation=".84570888"/>
    </filter>
    <filter id="ap" width="1.2445009" height="1.0452356" x="-.12225047" y="-.0226178">
      <feGaussianBlur stdDeviation=".84570888"/>
    </filter>
    <filter id="ao">
      <feGaussianBlur stdDeviation=".84570888"/>
    </filter>
    <filter id="am">
      <feGaussianBlur stdDeviation=".84570888"/>
    </filter>
    <filter id="an">
      <feGaussianBlur stdDeviation=".84570888"/>
    </filter>
    <filter id="ak">
      <feGaussianBlur stdDeviation=".84570888"/>
    </filter>
    <filter id="al">
      <feGaussianBlur stdDeviation=".84570888"/>
    </filter>
    <filter id="aH" width="1.2771235" height="1.8666955" x="-.13856177" y="-.43334773">
      <feGaussianBlur stdDeviation="2.2920051"/>
    </filter>
    <filter id="aG" width="1.2067891" height="1.7562772" x="-.10339455" y="-.37813857">
      <feGaussianBlur stdDeviation="2.2920051"/>
    </filter>
    <filter id="aF" width="1.1710395" height="1.6398269" x="-.08551977" y="-.31991342">
      <feGaussianBlur stdDeviation="2.2920051"/>
    </filter>
    <filter id="aE" width="1.1495014" height="1.6498328" x="-.07475074" y="-.32491642">
      <feGaussianBlur stdDeviation="2.2920051"/>
    </filter>
    <filter id="aD" width="1.1204633" height="1.3679078" x="-.06023158" y="-.1839539">
      <feGaussianBlur stdDeviation="2.2920051"/>
    </filter>
    <filter id="aC" width="1.1102366" height="1.3034306" x="-.05511834" y="-.15171532">
      <feGaussianBlur stdDeviation="2.2920051"/>
    </filter>
    <filter id="aB" width="1.1096549" height="1.2866832" x="-.05482743" y="-.14334159">
      <feGaussianBlur stdDeviation="2.2920051"/>
    </filter>
    <filter id="aA" width="1.1129332" height="1.2771235" x="-.05646654" y="-.13856177">
      <feGaussianBlur stdDeviation="2.2920051"/>
    </filter>
    <filter id="ay" width="1.134937" height="1.2969259" x="-.06746851" y="-.14846295">
      <feGaussianBlur stdDeviation="2.2920051"/>
    </filter>
    <filter id="az" width="1.1255591" height="1.2906944" x="-.06277958" y="-.14534713">
      <feGaussianBlur stdDeviation="2.2920051"/>
    </filter>
    <filter id="ax" width="1.1448123" height="1.2716877" x="-.07240619" y="-.13584386">
      <feGaussianBlur stdDeviation="2.2920051"/>
    </filter>
    <filter id="aw" width="1.1610934" height="1.3125602" x="-.08054663" y="-.15628009">
      <feGaussianBlur stdDeviation="2.2920051"/>
    </filter>
    <filter id="av" width="1.3711944" height="1.7171214" x="-.18559718" y="-.35856068">
      <feGaussianBlur stdDeviation="2.2920051"/>
    </filter>
    <filter id="bp">
      <feGaussianBlur stdDeviation="1.8674838"/>
    </filter>
    <filter id="bC" width="1.2806871" height="1.1418881" x="-.14034355" y="-.07094406">
      <feGaussianBlur stdDeviation="1.3429531"/>
    </filter>
    <filter id="bB" width="1.2718236" height="1.1073751" x="-.13591182" y="-.05368762">
      <feGaussianBlur stdDeviation="1.3429531"/>
    </filter>
    <filter id="bA" width="1.2875504" height="1.0914117" x="-.14377522" y="-.04570583">
      <feGaussianBlur stdDeviation="1.3429531"/>
    </filter>
    <filter id="bz" width="1.2391469" height="1.0753981" x="-.1195735" y="-.03769904">
      <feGaussianBlur stdDeviation="1.3429531"/>
    </filter>
    <filter id="by" width="1.2445865" height="1.0653769" x="-.12229324" y="-.03268845">
      <feGaussianBlur stdDeviation="1.3429531"/>
    </filter>
    <filter id="bx" width="1.2556762" height="1.0609773" x="-.12783806" y="-.03048865">
      <feGaussianBlur stdDeviation="1.3429531"/>
    </filter>
    <filter id="bw" width="1.4066586" height="1.0741" x="-.20332935" y="-.03704999">
      <feGaussianBlur stdDeviation="1.3429531"/>
    </filter>
    <filter id="bv" width="1.3180741" height="1.0643986" x="-.15903705" y="-.03219935">
      <feGaussianBlur stdDeviation="1.3429531"/>
    </filter>
    <filter id="bu" width="1.3715531" height="1.0682269" x="-.18577655" y="-.03411343">
      <feGaussianBlur stdDeviation="1.3429531"/>
    </filter>
    <filter id="bt" width="1.9090662" height="1.1054031" x="-.4545331" y="-.05270154">
      <feGaussianBlur stdDeviation="1.3429531"/>
    </filter>
    <filter id="bs" width="1.4490906" height="1.0767425" x="-.22454531" y="-.03837123">
      <feGaussianBlur stdDeviation="1.3429531"/>
    </filter>
    <filter id="br" width="1.5868701" height="1.0959992" x="-.29343504" y="-.04799959">
      <feGaussianBlur stdDeviation="1.3429531"/>
    </filter>
    <filter id="bq" width="1.4872186" height="1.1160617" x="-.24360931" y="-.05803083">
      <feGaussianBlur stdDeviation="1.3429531"/>
    </filter>
    <filter id="bR" width="1.2670355" height="1.4188501" x="-.13351776" y="-.20942508">
      <feGaussianBlur stdDeviation="2.0691898"/>
    </filter>
    <filter id="bQ" width="1.1654412" height="1.2697511" x="-.08272059" y="-.13487555">
      <feGaussianBlur stdDeviation="2.0691898"/>
    </filter>
    <filter id="bP" width="1.1487426" height="1.2781402" x="-.07437132" y="-.13907008">
      <feGaussianBlur stdDeviation="2.0691898"/>
    </filter>
    <filter id="bO" width="1.1357976" height="1.310845" x="-.06789879" y="-.15542252">
      <feGaussianBlur stdDeviation="2.0691898"/>
    </filter>
    <filter id="bM" width="1.1112972" height="1.2935379" x="-.05564863" y="-.14676893">
      <feGaussianBlur stdDeviation="2.0691898"/>
    </filter>
    <filter id="bN" width="1.1273239" height="1.3145308" x="-.06366196" y="-.15726538">
      <feGaussianBlur stdDeviation="2.0691898"/>
    </filter>
    <filter id="bL" width="1.1081218" height="1.3429959" x="-.05406084" y="-.17149796">
      <feGaussianBlur stdDeviation="2.0691898"/>
    </filter>
    <filter id="bK" width="1.0901219" height="1.2697511" x="-.04506097" y="-.13487555">
      <feGaussianBlur stdDeviation="2.0691898"/>
    </filter>
    <filter id="bJ" width="1.0880284" height="1.281189" x="-.0440142" y="-.14059451">
      <feGaussianBlur stdDeviation="2.0691898"/>
    </filter>
    <filter id="bI" width="1.1103711" height="1.4708599" x="-.05518554" y="-.23542994">
      <feGaussianBlur stdDeviation="2.0691898"/>
    </filter>
    <filter id="bH" width="1.1034819" height="1.4255381" x="-.05174096" y="-.21276908">
      <feGaussianBlur stdDeviation="2.0691898"/>
    </filter>
    <filter id="bG" width="1.1237597" height="1.7104814" x="-.06187983" y="-.3552407">
      <feGaussianBlur stdDeviation="2.0691898"/>
    </filter>
    <filter id="bF" width="1.1310995" height="1.8203421" x="-.06554977" y="-.41017103">
      <feGaussianBlur stdDeviation="2.0691898"/>
    </filter>
    <filter id="bE" width="1.1707665" height="1.9703943" x="-.08538324" y="-.48519713">
      <feGaussianBlur stdDeviation="2.0691898"/>
    </filter>
    <filter id="bD" width="1.2404131" height="2.2432902" x="-.12020657" y="-.62164509">
      <feGaussianBlur stdDeviation="2.0691898"/>
    </filter>
    <filter id="cz">
      <feGaussianBlur stdDeviation=".41773864"/>
    </filter>
    <filter id="cA">
      <feGaussianBlur stdDeviation=".41773864"/>
    </filter>
    <filter id="cB">
      <feGaussianBlur stdDeviation=".41773864"/>
    </filter>
    <filter id="cC">
      <feGaussianBlur stdDeviation=".41773864"/>
    </filter>
    <filter id="cD">
      <feGaussianBlur stdDeviation=".41773864"/>
    </filter>
    <filter id="cE">
      <feGaussianBlur stdDeviation=".41773864"/>
    </filter>
    <filter id="cF">
      <feGaussianBlur stdDeviation=".41773864"/>
    </filter>
    <filter id="cG">
      <feGaussianBlur stdDeviation=".41773864"/>
    </filter>
    <filter id="cH">
      <feGaussianBlur stdDeviation=".41773864"/>
    </filter>
    <filter id="cb">
      <feGaussianBlur stdDeviation=".78193863"/>
    </filter>
    <filter id="ca">
      <feGaussianBlur stdDeviation=".78193863"/>
    </filter>
    <filter id="bZ">
      <feGaussianBlur stdDeviation=".78193863"/>
    </filter>
    <filter id="bY">
      <feGaussianBlur stdDeviation=".78193863"/>
    </filter>
    <filter id="bX">
      <feGaussianBlur stdDeviation=".78193863"/>
    </filter>
    <filter id="bW">
      <feGaussianBlur stdDeviation=".78193863"/>
    </filter>
    <filter id="bV">
      <feGaussianBlur stdDeviation=".78193863"/>
    </filter>
    <filter id="bU">
      <feGaussianBlur stdDeviation=".78193863"/>
    </filter>
    <filter id="bT" width="1.1324699" height="1.2147834" x="-.06623498" y="-.1073917">
      <feGaussianBlur stdDeviation=".78193863"/>
    </filter>
    <filter id="bS">
      <feGaussianBlur stdDeviation="1.1114355"/>
    </filter>
    <filter id="cl" width="1.0895728" height="1.7229186" x="-.0447864" y="-.36145929">
      <feGaussianBlur stdDeviation=".82218967"/>
    </filter>
    <filter id="ck" width="1.0681454" height="1.9616199" x="-.0340727" y="-.48080993">
      <feGaussianBlur stdDeviation=".82218967"/>
    </filter>
    <filter id="cj" width="1.0613972" height="1.5358263" x="-.03069858" y="-.26791313">
      <feGaussianBlur stdDeviation=".82218967"/>
    </filter>
    <filter id="ci" width="1.0517507" height="1.3552352" x="-.02587534" y="-.17761761">
      <feGaussianBlur stdDeviation=".82218967"/>
    </filter>
    <filter id="ch" width="1.0502698" height="1.2359509" x="-.02513488" y="-.11797546">
      <feGaussianBlur stdDeviation=".82218967"/>
    </filter>
    <filter id="cg">
      <feGaussianBlur stdDeviation=".82218967"/>
    </filter>
    <filter id="cf">
      <feGaussianBlur stdDeviation=".82218967"/>
    </filter>
    <filter id="ce">
      <feGaussianBlur stdDeviation=".82218967"/>
    </filter>
    <filter id="cd">
      <feGaussianBlur stdDeviation=".82218967"/>
    </filter>
    <filter id="cc" width="1.1202236" height="1.3040057" x="-.06011182" y="-.15200284">
      <feGaussianBlur stdDeviation=".82218967"/>
    </filter>
    <filter id="bd">
      <feGaussianBlur stdDeviation="1.1507504"/>
    </filter>
    <filter id="bn" width="1.274863" height="1.0992266" x="-.13743149" y="-.04961332">
      <feGaussianBlur stdDeviation="1.1507504"/>
    </filter>
    <filter id="bm" width="1.2058315" height="1.0830305" x="-.10291576" y="-.04151527">
      <feGaussianBlur stdDeviation="1.1507504"/>
    </filter>
    <filter id="bl">
      <feGaussianBlur stdDeviation="1.1507504"/>
    </filter>
    <filter id="bk">
      <feGaussianBlur stdDeviation="1.1507504"/>
    </filter>
    <filter id="bi">
      <feGaussianBlur stdDeviation="1.1507504"/>
    </filter>
    <filter id="bh">
      <feGaussianBlur stdDeviation="1.1507504"/>
    </filter>
    <filter id="be">
      <feGaussianBlur stdDeviation="1.1507504"/>
    </filter>
    <filter id="bf">
      <feGaussianBlur stdDeviation="1.1507504"/>
    </filter>
    <filter id="bc">
      <feGaussianBlur stdDeviation="1.1507504"/>
    </filter>
    <filter id="bb">
      <feGaussianBlur stdDeviation="1.1507504"/>
    </filter>
    <filter id="ba">
      <feGaussianBlur stdDeviation="1.1507504"/>
    </filter>
    <filter id="aZ" width="1.2117403" height="1.1851633" x="-.10587012" y="-.09258165">
      <feGaussianBlur stdDeviation="1.1507504"/>
    </filter>
    <filter id="bj" width="1.2061667" height="1.0897354" x="-.10308339" y="-.04486768">
      <feGaussianBlur stdDeviation="1.7476667"/>
    </filter>
    <filter id="bg">
      <feGaussianBlur stdDeviation="1.7476667"/>
    </filter>
    <filter id="aY" width="1.312469" height="1.1191196" x="-.1562345" y="-.05955984">
      <feGaussianBlur stdDeviation="1.1863211"/>
    </filter>
    <filter id="aX" width="1.2247367" height="1.1029865" x="-.11236833" y="-.05149327">
      <feGaussianBlur stdDeviation="1.1863211"/>
    </filter>
    <filter id="aW">
      <feGaussianBlur stdDeviation="1.1863211"/>
    </filter>
    <filter id="aV">
      <feGaussianBlur stdDeviation="1.1863211"/>
    </filter>
    <filter id="aU">
      <feGaussianBlur stdDeviation="1.1863211"/>
    </filter>
    <filter id="aT">
      <feGaussianBlur stdDeviation="1.1863211"/>
    </filter>
    <filter id="aS">
      <feGaussianBlur stdDeviation="1.1863211"/>
    </filter>
    <filter id="aR">
      <feGaussianBlur stdDeviation="1.1863211"/>
    </filter>
    <filter id="aQ">
      <feGaussianBlur stdDeviation="1.1863211"/>
    </filter>
    <filter id="aP">
      <feGaussianBlur stdDeviation="1.1863211"/>
    </filter>
    <filter id="aO">
      <feGaussianBlur stdDeviation="1.1863211"/>
    </filter>
    <filter id="aN">
      <feGaussianBlur stdDeviation="1.1863211"/>
    </filter>
    <filter id="aM">
      <feGaussianBlur stdDeviation="1.1863211"/>
    </filter>
    <filter id="aL">
      <feGaussianBlur stdDeviation="1.1863211"/>
    </filter>
    <filter id="aK">
      <feGaussianBlur stdDeviation="1.1863211"/>
    </filter>
    <filter id="aJ" width="1.2683589" height="1.212194" x="-.13417943" y="-.10609698">
      <feGaussianBlur stdDeviation="1.1863211"/>
    </filter>
    <filter id="cm">
      <feGaussianBlur stdDeviation=".89426707"/>
    </filter>
    <filter id="cy" width="1.0735217" height="1.2383301" x="-.03676084" y="-.11916505">
      <feGaussianBlur stdDeviation=".52000785"/>
    </filter>
    <filter id="cx" width="1.0847363" height="1.6064475" x="-.04236812" y="-.30322367">
      <feGaussianBlur stdDeviation=".52000785"/>
    </filter>
    <filter id="cw" width="1.0571374" height="1.308521" x="-.02856871" y="-.1542605">
      <feGaussianBlur stdDeviation=".52000785"/>
    </filter>
    <filter id="cv" width="1.0473891" height="1.3123651" x="-.02369457" y="-.1561825">
      <feGaussianBlur stdDeviation=".52000785"/>
    </filter>
    <filter id="cu" width="1.0522145" height="1.6042149" x="-.02610725" y="-.30210745">
      <feGaussianBlur stdDeviation=".52000785"/>
    </filter>
    <filter id="cs" width="1.1242067" height="1.8490649" x="-.06210334" y="-.4245325">
      <feGaussianBlur stdDeviation=".52000785"/>
    </filter>
    <filter id="co">
      <feGaussianBlur stdDeviation=".4964371"/>
    </filter>
    <filter id="cr">
      <feGaussianBlur stdDeviation=".4964371"/>
    </filter>
    <filter id="cq">
      <feGaussianBlur stdDeviation=".4964371"/>
    </filter>
    <filter id="cp">
      <feGaussianBlur stdDeviation=".4964371"/>
    </filter>
    <filter id="ct" width="1.0709718" height="1.9610043" x="-.03548592" y="-.48050216">
      <feGaussianBlur stdDeviation=".4964371"/>
    </filter>
    <filter id="cn">
      <feGaussianBlur stdDeviation=".4964371"/>
    </filter>
    <filter id="cJ" width="1.4910268" height="1.4867696" x="-.24551341" y="-.24338475">
      <feGaussianBlur stdDeviation="1.9290455"/>
    </filter>
    <linearGradient id="q">
      <stop offset="0" stop-color="#95b244"/>
      <stop offset="1" stop-color="#bee76d" stop-opacity=".94117647"/>
    </linearGradient>
    <linearGradient id="n">
      <stop offset="0" stop-color="#4d8529"/>
      <stop offset=".5" stop-color="#355c25"/>
      <stop offset="1" stop-color="#4d812d"/>
    </linearGradient>
    <linearGradient id="m">
      <stop offset="0" stop-color="#548e3b"/>
      <stop offset="1" stop-color="#447133"/>
    </linearGradient>
    <linearGradient id="l">
      <stop offset="0" stop-color="#43732e"/>
      <stop offset="1" stop-color="#518536" stop-opacity=".94117647"/>
    </linearGradient>
    <linearGradient id="j">
      <stop offset="0" stop-color="#81b14b"/>
      <stop offset="1" stop-opacity="0"/>
    </linearGradient>
    <linearGradient id="i">
      <stop offset="0" stop-color="#4f7937"/>
      <stop offset=".47916666" stop-color="#527d35"/>
      <stop offset="1" stop-color="#55873f"/>
    </linearGradient>
    <linearGradient id="h">
      <stop offset="0" stop-color="#46733a"/>
      <stop offset="1" stop-color="#467344"/>
    </linearGradient>
    <linearGradient id="f">
      <stop offset="0" stop-color="#6ba039"/>
      <stop offset="1" stop-color="#6ba039" stop-opacity="0"/>
    </linearGradient>
    <linearGradient id="e">
      <stop offset="0" stop-color="#539132"/>
      <stop offset=".49323297" stop-color="#446f2d"/>
      <stop offset="1" stop-color="#5b9340"/>
    </linearGradient>
    <linearGradient id="d">
      <stop offset="0" stop-color="#005900"/>
      <stop offset="1" stop-opacity="0"/>
    </linearGradient>
    <linearGradient id="c">
      <stop offset="0" stop-color="#518833" stop-opacity="0"/>
      <stop offset="1" stop-color="#518833" stop-opacity="0"/>
    </linearGradient>
    <linearGradient id="b">
      <stop offset="0" stop-color="#48601a"/>
      <stop offset="1" stop-color="#518933"/>
    </linearGradient>
    <linearGradient id="p">
      <stop offset="0" stop-color="#007300"/>
      <stop offset="1" stop-opacity="0"/>
    </linearGradient>
    <linearGradient id="o">
      <stop offset="0" stop-color="#759f22"/>
      <stop offset="1" stop-opacity="0"/>
    </linearGradient>
    <linearGradient id="g">
      <stop offset="0" stop-color="#75a23d"/>
      <stop offset="1" stop-color="#75a23d" stop-opacity="0"/>
    </linearGradient>
    <linearGradient id="k">
      <stop offset="0" stop-color="#75a204"/>
      <stop offset="1" stop-color="#75a23d" stop-opacity="0"/>
    </linearGradient>
    <linearGradient id="a">
      <stop offset="0" stop-color="#b2d47a"/>
      <stop offset="1" stop-color="#b7e565"/>
    </linearGradient>
    <linearGradient xlink:href="#a" id="z" x1="327.25031" x2="336.61099" y1="859.90607" y2="860.65491" gradientTransform="translate(22.465695 -12.356132)" gradientUnits="userSpaceOnUse"/>
    <linearGradient xlink:href="#b" id="s" x1="245.69798" x2="266.87885" y1="769.59772" y2="807.72327" gradientUnits="userSpaceOnUse"/>
    <linearGradient xlink:href="#c" id="F" x1="246.37379" x2="220.91267" y1="782.24451" y2="794.17926" gradientUnits="userSpaceOnUse"/>
    <linearGradient xlink:href="#d" id="G" x1="260.22763" x2="246.37379" y1="786.73767" y2="782.24451" gradientUnits="userSpaceOnUse"/>
    <linearGradient xlink:href="#e" id="t" x1="170.50592" x2="185.03467" y1="734.64929" y2="671.10669" gradientUnits="userSpaceOnUse"/>
    <linearGradient xlink:href="#f" id="P" x1="187.21413" x2="187.96298" y1="703.76947" y2="700.02521" gradientUnits="userSpaceOnUse"/>
    <linearGradient xlink:href="#g" id="aj" x1="356.63275" x2="64.601624" y1="732.26642" y2="380.13461" gradientUnits="userSpaceOnUse"/>
    <linearGradient xlink:href="#h" id="u" x1="234.04851" x2="150.38411" y1="501.65982" y2="552.4939" gradientUnits="userSpaceOnUse"/>
    <linearGradient xlink:href="#i" id="v" x1="314.51974" x2="420.85736" y1="522.17175" y2="519.17633" gradientUnits="userSpaceOnUse"/>
    <linearGradient xlink:href="#j" id="aI" x1="363.25177" x2="368.28223" y1="725.6474" y2="379.34033" gradientUnits="userSpaceOnUse"/>
    <linearGradient xlink:href="#k" id="bo" x1="378.92139" x2="650.00745" y1="725.86072" y2="424.82043" gradientUnits="userSpaceOnUse"/>
    <linearGradient xlink:href="#l" id="w" x1="503.23157" x2="576.61951" y1="522.17175" y2="586.57343" gradientUnits="userSpaceOnUse"/>
    <linearGradient xlink:href="#m" id="x" x1="523.16663" x2="555.26575" y1="681.78583" y2="745.36511" gradientUnits="userSpaceOnUse"/>
    <linearGradient xlink:href="#n" id="y" x1="372.39291" x2="584.92938" y1="745.36511" y2="863.44092" gradientUnits="userSpaceOnUse"/>
    <linearGradient xlink:href="#o" id="cK" x1="363.25177" x2="369.19351" y1="725.6474" y2="259.44797" gradientUnits="userSpaceOnUse"/>
    <radialGradient xlink:href="#k" id="A" cx="346.65363" cy="908.53119" r="7.0406613" fx="346.65363" fy="908.53119" gradientTransform="matrix(1.78546 -.20823 1.10551 9.47927 -1276.233 -7603.5536)" gradientUnits="userSpaceOnUse"/>
    <radialGradient xlink:href="#g" id="B" cx="358.88947" cy="798.17316" r="7.5205302" fx="358.88947" fy="798.17316" gradientTransform="matrix(.66393 4.72982 -6.56166 .92106 5357.9501 -1637.8966)" gradientUnits="userSpaceOnUse"/>
    <radialGradient xlink:href="#o" id="C" cx="362.58984" cy="752.4986" r="7.26616" fx="362.58984" fy="752.4986" gradientTransform="matrix(-.14574 1.07491 -1.2273 -.1664 1340.4265 480.97112)" gradientUnits="userSpaceOnUse"/>
    <radialGradient xlink:href="#p" id="D" cx="332.80426" cy="717.08636" r="99.255768" fx="332.80426" fy="717.08636" gradientTransform="matrix(-1.8112 .9256 -.2748 -.53773 1132.6425 827.02846)" gradientUnits="userSpaceOnUse"/>
    <radialGradient xlink:href="#q" id="cI" cx="362.74249" cy="737.7641" r="9.928628" fx="362.74249" fy="737.7641" gradientTransform="matrix(-.18296 -.9371 .98962 -.19322 -300.9946 1220.2322)" gradientUnits="userSpaceOnUse"/>
    <radialGradient xlink:href="#q" id="r" cx="362.74249" cy="737.7641" r="9.928628" fx="362.74249" fy="737.7641" gradientTransform="matrix(-.18296 -.9371 .98962 -.19322 -300.9946 1220.2322)" gradientUnits="userSpaceOnUse"/>
  </defs>
  <g transform="translate(-9.384521 -165.73839)">
    <path fill="url(#r)" fill-rule="evenodd" d="M363.87783 747.97639c2.49279-3.57661 3.91234-6.90138 8.62862-6.585 1.3309-.81352 2.08235-3.46533 1.02181-4.20077-1.82712 0-3.36657-.55452-5.10905-1.13534-1.54833-1.41988-2.45848-4.60161-2.72483-6.81207-18.10267-2.94091-8.82227 17.5037-1.81655 18.73318z"/>
    <path fill="url(#s)" fill-rule="evenodd" d="M356.58385 738.70982c-4.80618-.75509-12.10573.55301-18.68782 1.76776-5.782 1.38182-11.37108 3.34785-17.1726 4.79823-6.51533 3.04317-14.42114 4.42531-21.71828 4.79822-3.83365.24485-2.4103 1.43421-2.77792 3.53554-9.03083-.04265-16.95882 4.12937-25.75889 5.05076-2.61002 2.07267 4.21958 2.14502 1.76777 4.29315-9.84849 1.70515-20.52131 6.70701-26.76904 9.34391 1.11946.88749 2.29546 1.80547 3.03046 3.03046-5.5847 1.89444-12.69979 2.09486-23.99113 8.58629-.78503 2.72796 4.90884 1.21863 2.77792 3.78808-8.07592 4.3466-16.39139 6.71965-24.74873 14.14213-1.36215 1.36215.14004 2.16035.75761 2.77792-19.82455 13.1701-38.72493 29.88432-48.23478 52.27539-1.19552 2.15989-1.11114 5.27406 2.0203 4.04062 5.52005-10.08285 17.36139-19.14328 22.98097-23.99113 7.93143-6.45695 23.19123-12.06901 24.74874-11.36421 3.09435-1.50396 16.82506-9.70728 16.92005-6.31346 0 1.95614-.18758 2.30532 1.26269 3.03046 2.92926-.95824 17.14624-8.59141 31.31473-16.92005 1.64315 1.22879-.85281 5.79803.50508 6.56599 9.06847-1.7131 13.18411-12.60165 20.96067-14.64722 2.53916-1.00077 1.51522 3.60323 1.51522 5.30331 10.38447-9.93031 19.67093-20.41225 32.07235-25.75889-.21942 3.16356-1.98174 8.57106-.90555 11.25961 12.79349-5.94562 12.01818-18.46948 25.14921-28.17967 5.4904-7.46957 13.04402-14.98073 21.97082-18.18275 1.37103-.34275 1.29614-1.60049 1.01015-3.03045z"/>
    <path fill="url(#t)" fill-rule="evenodd" d="M355.5737 735.42682c-18.23908-6.58251-40.17127-10.46305-58.84139-21.46574-6.04085-3.47984-12.52755-9.54696-19.1929-13.8896-1.06312 1.99513 2.09428 6.17995-2.0203 3.53554-5.54055-2.13511-19.11799-14.7824-20.96067-15.65737-.89355 1.63151.47786 4.38705.50508 6.56599-8.36425-6.61417-18.78219-10.97119-22.98097-15.65736-3.22648.47813-1.01095 3.819 0 5.55584-7.78582-.39053-19.042-11.33381-26.01143-10.6066-.67089 2.033 2.39661 6.18678-1.76777 3.53553-6.20315-2.34269-12.68301-4.33439-18.18274-8.33376-7.52167-.80802-6.30968-1.44245-5.3033 3.283-7.55488.81934-26.18689-13.38636-26.76905-5.80838 1.1687 1.84186 2.93884 3.53813 4.29315 5.55584-5.3212-.45048-27.97519-12.7495-29.54696-6.81853.19055 2.52071 5.24894 3.56695 2.77792 5.55584-11.37137-.28999-23.41971-10.24635-29.29442-8.08122 1.90051 13.43482-20.705996-3.98984-28.536814.50507-.778917.77892.399538 3.17746.757614 3.53554-6.014583-1.7657-17.810884-2.91296-27.526657-4.79823-9.442073-1.2655-26.127825-5.19988-33.587572-2.0203 17.766163 7.8095 34.821187 12.00629 56.316005 22.22335 1.234682 1.23469-2.501352 1.75576-3.030458 2.02031 8.07653 5.26515 16.485291 8.78141 25.253814 7.82868 5.108438 2.44145-6.644042 4.18186-3.535534 9.09137 8.854358 1.08736 17.647672 2.25231 26.516502 3.283 1.14535 3.73396-5.51693 2.34356-6.06091 6.56599 5.72622 1.92017 11.82082 1.39514 17.67767 3.03046 2.39018 1.19509-1.33596 2.56591-1.51523 3.283 11.67017 2.59431 15.71944 2.95507 23.23351 3.28299 3.64756-.56976 4.34892 3.52221.25253 3.53554-16.62823 7.73772 13.21269 6.31263 18.94036 6.31345 2.33935.06412 4.99208-.23932 7.07107.25254 1.33763 1.33763-3.46059 1.69282-4.79822 3.03045-3.58792 3.40145-.53498 4.3748 3.03046 5.05077 10.11701-.56554 20.34979-.806 29.04188-4.04061-1.96481 3.13892-11.4225 6.94923-6.56599 8.58629 6.98769.08973 12.7911-2.80371 23.73858-4.04061 5.16938-2.04387-.24377 3.96721-1.76776 5.3033 4.85114 2.85848 9.73145.91006 27.77919-4.54568 1.27776-.63888-2.77791 3.03045-3.78807 4.04061 3.76993 5.79567 28.13232-7.86767 28.53681-4.79823 0 2.26476-.6143 2.38207-2.02031 3.78808 13.32362-4.43828 16.12054-3.03046 28.78935-3.03046 15.64116-.34733 28.0328-3.93009 52.02286-1.51523 2.57078 1.1724 11.22723.7285 7.07107-3.03046z"/>
    <path fill="url(#u)" fill-rule="evenodd" d="M358.37708 732.44515c-17.60577-27.09611-32.8623-56.221-37.14857-84.64906l-3.53553 7.07107-6.06092-32.32489-2.0203 8.08122-5.55584-30.80965-4.54569 9.59645c-.98295-11.4484-2.89528-22.89679-6.56599-34.34519-3.25832 2.91653-6.44845 5.86715-7.07107 10.10153-.21881-12.40384-4.53108-23.78432-10.10152-34.85026l-4.04062 6.56599c-3.34458-8.74336-7.12289-17.70359-13.13198-27.7792l-2.0203 7.57615c-3.70005-11.45608-8.26154-21.18928-14.64722-27.27412l-2.52538 9.59645c-3.0745-8.19985-2.91494-15.10608-12.12183-25.75889l-3.53553 9.09137c-3.393-9.42809-6.5273-18.85618-15.15229-28.28427l-3.53553 11.11168c-2.70444-11.44305-9.09838-21.04134-17.1726-29.7995l-4.54568 9.59645-5.55585-12.12183-12.12182-13.63706-4.04061 8.58629c-6.51257-12.52814-11.43155-17.08833-16.66752-23.2335l-2.52538 9.09137c-5.23943-8.67919-10.87927-17.19821-22.72843-23.23351v6.56599L97.984797 396.2681l1.515229 6.06092-63.134534-40.91118 49.497474 52.52793-4.545686 1.51523 11.616755 13.13199c1.472161 3.62167 3.251235 6.62951 6.060914 7.57614l-7.576144.50508c4.714045 10.59796 9.428095 13.50684 14.142135 17.67767l-5.05076 2.52538c4.71404 2.18866 9.42809 4.37733 14.14213 6.56599l-9.09137 1.01015c3.36718 9.30298 7.74451 10.62867 11.11168 13.63706l10.6066 7.07107-11.11168 1.51523c7.05083 9.33824 10.00805 11.85379 13.13199 14.64721-6.63443 1.7283.25358 5.71034 9.59645 10.10152l-10.60661 1.01016c2.83204 5.04074 11.13986 11.90674 17.67767 18.18274l-6.56599 1.01016c1.72835 7.14406 11.65501 12.23853 18.18275 18.18274l-8.5863 4.04061c2.20143 4.94464 5.76743 9.34346 14.64721 11.61676l-1.51523 2.52538c4.93605 2.30984 12.25094 5.01616 9.59645 6.06091l-10.6066.50508c1.40902 6.24698 10.36655 11.23587 19.69798 16.16244l-4.54569 6.06091c9.18198 6.11265 18.21011 11.99451 24.74874 14.14214l-5.55584 6.06092c9.12319 5.86073 18.52767 11.44019 30.30457 14.64721l-9.59645 3.53553c9.93317 8.98885 19.86633 10.61868 29.7995 13.13198l-6.56599 2.52539c9.59645 4.95873 19.1929 9.51505 28.78935 13.13198l-8.08122 3.53553 27.27412 9.59645-5.55584 4.54569c37.7656 1.72071 51.12964 34.26737 76.54452 50.80895z"/>
    <path fill="url(#v)" fill-rule="evenodd" d="M366.1803 729.61844c8.475-24.21767 2.83335-39.51956 34.34519-78.28682-1.39517-4.56915-5.59223-.73262-9.59645 2.52538 9.30438-8.60349 15.48184-21.89738 22.22335-34.34518-4.36755.00977-6.98272 1.77193-10.10152 3.03045 5.12835-6.29369 11.76444-17.1106 18.18274-27.27412l1.51523-8.08122c-2.64664.41088-6.10943 2.45406-10.10152 5.55584 14.73366-19.01088 10.71479-24.38356 11.61675-33.33503l-6.56599 4.04061c5.10626-7.32454 8.6982-16.92057 11.11168-28.28427l-7.07107 5.05076c9.33003-21.33974 14.20447-34.65942 10.10152-31.8198l-12.12183 9.09137c3.41644-6.96153 7.96365-16.56153 7.57615-14.64721-2.8621-2.53313-5.7242.32735-8.5863 1.51522 11.03617-14.90842 18.39644-26.14094 1.51523-13.13198 2.96171-10.25783 24.92257-38.65121 1.51523-23.73858 2.54373-11.89881 20.60829-41.64658-1.01015-25.75889l10.10152-11.61676-7.07107-1.01015c10.00076-22.94964 6.69793-20.77027 5.05077-21.71828l-11.61676 9.59645c2.03587-5.73587 6.87798-13.57642 4.04062-15.65737 8.20116-17.1052 10.44213-28.63928-9.09138-12.12183 6.09963-12.00293 19.75545-42.36669-2.02031-26.26396 4.80875-1.39071 13.0301-50.62228-2.0203-28.78935.03953-12.99856 13.63679-44.33724-8.08122-23.73858 5.35236-10.99359 5.74959-21.16132 3.03046-30.80966l-7.07107 8.08122c.58281-21.96126-1.25749-32.41272-6.06092-28.78934-2.0203-10.32716-4.04061-15.93144-6.06091-18.18275-5.19143-16.64906-8.44547-32.00652-9.59645-45.96194l.50508-23.23351-6.566 19.1929c.53248 28.71493-.88222 44.77316-3.03045 56.06346-11.46838-9.91316-3.39166 16.3766-2.52538 23.23351l-6.566-4.04061c-1.754 16.4089-.87479 23.60153 0 30.80966l-8.58629-5.55584c-3.86468 12.91586.01196 20.02572 1.01015 29.29442-17.18331-15.18676-5.41684 15.80916-3.53553 25.75889-19.50134-15.80042-9.51332 9.58097-7.07107 21.71828-18.43838-14.45859-4.01503 17.17853-1.51523 29.29442-23.874-19.72372-9.99348 14.13438-5.55584 25.25382-22.715-10.88744-8.00946 15.115-5.55584 31.8198l-10.6066-7.07106c.93318 11.3955 3.44603 20.42149 7.07106 27.7792l-9.59645-4.04062 6.566 26.76904-6.06092-4.04061c-2.93531 3.80342-1.25124 14.07398 2.52539 27.27412-21.51174-9.68756-3.47392 17.90602 2.52538 33.33504l-8.5863-6.06092c2.02031 14.05613 4.04061 17.04435 6.06092 19.1929 6.57468 12.36659 7.14368 10.71992 10.10152 14.64721l-9.09137-3.03046c12.56333 20.65633 7.92965 14.7217 12.12183 22.22336l-5.55584 1.51523c7.04502 13.39117 14.40188 21.68337 18.68782 29.7995l-9.59645-.50508c8.17415 10.99853 14.19336 18.76466 19.69798 25.75889l-5.05077-.50507c7.15887 10.77254 11.51432 23.41404 14.64722 36.87056v35.86042l5.05076-.50508z"/>
    <path fill="url(#w)" fill-rule="evenodd" d="M371.23106 738.70982c17.28983-15.19625.10734-17.46539 75.76144-54.54824 11.06031-4.94096 47.62185-10.90196 28.78935-14.64721 15.16812-3.56347 45.67935-6.06879 24.74874-12.12183 15.2619-6.10272 45.34916-13.79388 25.75889-16.16244 9.67688-5.68378 38.1948-12.18673 20.20305-16.66752 6.0829-.6912 9.3698-2.18127 6.06091-5.55584 18.44521-5.20396 31.64594-10.08014 7.57615-12.62691 6.91725-1.8904 11.59865-4.33976 13.13198-7.57614 29.57525-10.24888 18.16106-12.81224 5.55584-15.15229 5.71029-.18226 11.1867-.5984 11.61675-6.06091 31.21084-16.69197 10.32172-13.62189 5.55584-16.66752 10.28162-1.94648 10.42332-5.34151 11.61676-8.5863 18.91454-11.50288 12.34579-12.58078 2.0203-12.12183 5.60935-2.8621 6.27409-5.72419 8.08122-8.58629 10.02702-6.48289 29.3824-14.00226 5.05076-16.66752 5.72419-1.01016 8.75467-3.36717 9.09138-7.07107 24.96865-17.60037 8.68389-12.85514 3.53553-14.14213 2.87706-1.97541 6.42674-1.933 8.08122-7.57615 16.80458-12.81243 12.8433-15.73636 1.51523-15.15229 6.60941-3.03046 12.9228-6.06091 11.61675-9.09137 15.43538-13.40697 9.04432-14.53656 3.53554-16.16244 9.42004-4.02011 5.79987-5.1424 3.53553-6.56599 9.599-7.45051 17.63666-14.51069 6.06092-16.66752 9.86315-11.74936 11.82865-17.3561 9.59645-19.69797 19.53879-31.29737 28.9318-50.75801 40.91117-73.23606-20.57954 23.28852-42.04129 49.6648-60.10407 64.14468-2.1118-11.82906-15.61422 12.79187-23.73859 20.20305-2.01383-3.92354.82659-17.1822-17.67767 10.60661-3.4277-5.4877-5.45275 3.0512-7.57614 10.6066-.55611-20.82612-9.34284-6.3782-19.1929 12.6269-2.93753-16.96377-12.18016-2.40208-21.71828 13.63706-3.14148-11.41372-9.18121-9.99231-21.71828 20.20305-2.20317-16.47778-8.74945-13.95448-21.71828 16.66752-3.7923-7.33245-5.61561-25.24819-19.69797 22.72843-3.26825-14.97001-7.9255-20.67997-19.1929 17.67767-4.33779-14.0835-6.93683-10.77944-8.5863 2.02031-3.12385 6.09776-6.17556 11.90698-10.6066 23.23351-1.10851-24.29864-7.3554-7.49017-15.15229 21.71828-1.83222-16.30546-8.52789 2.64909-15.65736 24.74873-.13835-13.76402-3.90418-8.78609-12.12183 19.1929-3.02451-10.73741-7.26823 5.34763-11.61676 23.73859-19.3973 44.7953-33.31293 62.18223-47.47717 80.8122l4.54569 4.54569z"/>
    <path fill="url(#x)" fill-rule="evenodd" d="M374.05382 738.21688c22.4657.33835 44.93139 2.01308 67.39709 11.23285.27346-1.23617.20539-2.64312-1.49771-4.86757 15.87566 6.34383 21.04705 6.57094 30.70311 9.36071.94257-.30553-.20503-2.70122-2.24657-5.99086 10.35918 2.80108 20.71837 6.18892 31.07755 7.11414.35678-2.49619-2.32172-4.99237-3.74428-7.48856 12.72869 5.36369 21.48696 4.11001 31.45197 4.86756-1.57138-2.621-3.42538-5.24199-5.99085-7.86299 12.35613 4.59159 24.71226 3.93342 37.06839 2.621-1.61766-3.75401-4.14065-5.69736-6.73971-7.48857 14.03577 2.43061 22.58707 1.57054 31.82641 1.12329-2.67431-3.52132-4.8043-6.77048-9.36071-11.23285 16.90317 2.88338 27.12729 1.09143 34.07297-2.99543-1.85075-3.75498-3.61984-7.55078-9.36071-9.3607 6.28693 1.341 11.80795 1.1502 16.10042-1.49772 6.29483-3.27592 10.15031-3.29937 13.47942-2.62099-.5231-2.76967-.0504-4.54354-3.36986-10.10957 16.9415.54955 23.7965-4.40263 29.95426-9.73513l-8.61185-2.99543c6.98414 1.00626 19.29046-5.97075 29.95426-10.48399l-3.36985-2.621c5.53616-1.54447 8.50805 1.39855 17.59813-6.36528 16.37037-5.74123 40.35317-11.48247 46.05467-17.2237l-29.95426 3.36986c-7.58888-2.57201-12.61631-.02112-18.34698 1.12328-.92738-4.90485-18.28993 1.69491-28.08212 2.99543 3.78841-9.0304-3.0057-7.4783-13.10499-2.621-6.3226-.03201-4.3147-6.31189-25.08669 4.49314 8.74121-10.58256-4.01148-7.55232-25.0867.74886 8.75701-10.34197-6.19461-4.38426-29.2054 7.11413-.5334-3.20857 11.07414-14.79021-16.10042.37443-1.80519-.94365-5.69446 1.58618-10.48399 5.61643 4.99233-9.73508-.99842-8.98633-17.97255 2.24657l-7.48857 5.24199c7.30149-14.38444-15.2897 4.11308-25.83555 9.36071 4.67031-11.48115-13.34026 3.49872-25.46112 11.60727 2.10104-7.44098-5.85942-4.40122-27.70769 13.10499 7.78602-9.20937-5.46506-2.64091-25.46112 8.98628-18.66693 3.93501-37.84188 7.89543-37.0684 10.85842z"/>
    <path fill="url(#y)" fill-rule="evenodd" d="M371.7241 741.26829c9.43001 13.68587 19.60552 26.99899 30.44749 39.97888 1.02479-1.24281.61138-4.6429.26476-7.94282 12.03089 16.0307 16.94672 17.83129 25.41703 26.74083-.13341-2.29871-.75149-6.5361-1.58856-11.64947 16.31591 15.6963 21.42284 18.31546 29.91796 24.88751.08825-2.02984-.52952-5.11871-1.85332-9.26663 10.20302 10.68738 17.08379 15.3947 23.82847 19.85706.18368-2.28742-.91394-5.85614-2.11809-9.53139 4.51073 5.16447 15.55188 11.41734 23.82847 17.20945.02381-1.93459-.66064-6.70219-1.32381-11.38471 3.47624 5.63066 17.42908 10.38826 28.85893 15.35612 23.54319-2.38712 45.36234 24.5345 68.04351 36.80175-14.10067-19.73541-29.98399-44.80081-69.10256-64.86639 2.9499-.49199 5.08033-1.80345 6.61902-3.70665-11.38471-6.4817-22.76943-10.94713-34.15414-15.35612 3.1728-.85601 4.75702-2.77107 5.82474-5.03046-10.67868-4.89315-21.35737-5.89224-32.03605-8.20758 3.51346-1.94575 4.56606-4.50671 5.29521-7.14854-24.72754-5.53949-21.20731-3.00818-28.06464-3.44189 3.06726-1.3238 2.7821-2.64761 3.97142-3.97141-8.18442-3.84124-18.62868-3.16278-28.06464-4.50093-5.29954-7.12271-33.97439-10.90609-52.42263-16.15041l-1.58857 1.3238z"/>
    <path fill="url(#z)" fill-rule="evenodd" d="M354.95798 944.52685c5.36681-68.02113 1.78903-101.75469 16.10042-204.0634-3.40834-.07697-5.70213 2.07517-7.11414 5.99085 1.65988-6.07636-1.82267-7.74492-7.11413-7.86299 1.14916 37.17572-9.2359 137.7896-13.85385 206.6844 2.87062-.19114 5.74123-.34122 8.61185 3.36985l3.36985-4.11871z"/>
    <path fill="url(#A)" fill-rule="evenodd" d="M350.65206 859.71885c-.93607 24.46265-1.70983 37.44124-2.80821 73.38794 2.63974-29.52797 6.68851-66.4476 7.48856-4.30593.99765 4.51656-.96636 21.88194-3.18264 21.52963-1.14578-.18214-3.322-8.08338-9.73513-6.36529 6.23481-31.57112 5.49161-56.16423 8.23742-84.24635z" opacity=".6"/>
    <path fill="url(#B)" fill-rule="evenodd" d="m365.44197 750.94744-10.10956 97.16413-3.9315-1.3105 8.79907-97.35134 1.49771 4.49314 3.74428-2.99543z" opacity=".5"/>
    <path fill="none" stroke="url(#C)" stroke-linecap="round" stroke-width=".5" d="M357.02988 739.41497c8.34786-.56551 6.38488 8.81158 5.16283 17.47421 1.42441-7.65997 2.02429-16.71135 8.86949-15.22374"/>
    <path fill="none" stroke="url(#D)" stroke-linecap="round" d="M352.66133 739.41497c-60.7704 23.1628-113.23739 55.5516-168.12308 85.25296-13.38668 9.15648-20.63699 21.81945-29.38845 33.62462" filter="url(#E)" opacity=".6"/>
    <path fill="url(#F)" fill-rule="evenodd" stroke="url(#G)" stroke-linecap="round" stroke-width=".25" d="M200.69354 801.12083c16.70421-6.08106 35.24626-18.13505 48.30125-12.35614" opacity=".5"/>
    <path fill="#001400" fill-opacity=".16728623" fill-rule="evenodd" stroke="#293c00" stroke-linecap="round" stroke-width=".25" d="M224.28252 782.77384c21.04243-5.28667 36.86868-7.44362 47.92682-6.73971" filter="url(#H)" opacity=".37969929"/>
    <path fill="#001400" fill-opacity=".16728623" fill-rule="evenodd" stroke="#293c00" stroke-linecap="round" stroke-width=".25" d="M245.2505 770.79214c23.68886-6.43395 38.39272-7.62664 50.17339-7.11414" filter="url(#I)" opacity=".37969929"/>
    <path fill="#001400" fill-opacity=".16728623" fill-rule="evenodd" stroke="#293c00" stroke-linecap="round" stroke-width=".25" d="M271.08605 758.43601c16.92008-3.0454 35.21116-6.83861 41.56154-4.11872" filter="url(#J)" opacity=".37969929"/>
    <path fill="#001400" fill-opacity=".16728623" fill-rule="evenodd" stroke="#293c00" stroke-linecap="round" stroke-width=".25" d="M311.52431 748.32644c12.68518-4.66561 11.8202-1.20112 15.35155-.37443" filter="url(#K)" opacity=".37969929"/>
    <path fill="#0f0" fill-opacity=".16728623" fill-rule="evenodd" stroke="#003c00" stroke-linecap="round" stroke-width=".25" d="M217.54281 816.09796c5.75863-4.73406 8.80168-10.82591 12.73056-16.47485" filter="url(#L)" opacity=".5"/>
    <path fill="#0f0" fill-opacity=".16728623" fill-rule="evenodd" stroke="#003c00" stroke-linecap="round" stroke-width=".25" d="M226.52909 818.34453c19.12935-13.26582 33.62042-27.30468 46.80353-41.56154" filter="url(#M)" opacity=".5"/>
    <path fill="#0f0" fill-opacity=".16728623" fill-rule="evenodd" stroke="#003c00" stroke-linecap="round" stroke-width=".25" d="M256.85778 808.23496c6.41042-6.43154 7.06841-5.10981 35.19626-40.81268" filter="url(#N)" opacity=".5"/>
    <path fill="#0f0" fill-opacity=".16728623" fill-rule="evenodd" stroke="#003c00" stroke-linecap="round" stroke-width=".25" d="M330.99457 746.82873c-16.9393 17.18892-25.57781 26.07705-33.69854 34.4474" filter="url(#O)" opacity=".5"/>
    <path fill="url(#P)" fill-rule="evenodd" stroke="#6fa358" stroke-linecap="round" stroke-width=".5" d="M350.83927 735.22145c-35.83074-4.78528-33.75681-3.95146-67.14904-10.84321-33.31521-6.87585-102.25061-22.224-172.11061-37.83246-38.391402-12.22634-68.754123-20.53411-97.164132-26.77162" opacity=".5"/>
    <path fill="#427326" fill-rule="evenodd" stroke="#6a9a4a" stroke-width=".25" d="M73.94958 663.70566c19.656147 6.55383 37.93609 10.73958 49.42453 25.46112" filter="url(#Q)" opacity=".5"/>
    <path fill="#427326" fill-rule="evenodd" stroke="#6a9a4a" stroke-width=".25" d="M102.96777 662.76958c34.60735 12.30909 40.33529 21.73472 51.85831 31.63919" filter="url(#R)" opacity=".5"/>
    <path fill="#427326" fill-rule="evenodd" stroke="#6a9a4a" stroke-width=".25" d="M130.30103 664.64173c28.94106 13.49611 41.65639 23.91823 55.41538 35.94511" filter="url(#S)" opacity=".5"/>
    <path fill="#427326" fill-rule="evenodd" stroke="#6a9a4a" stroke-width=".25" d="M155.01329 665.01616c25.56171 13.35828 43.19642 27.97685 60.8446 43.8081" filter="url(#T)" opacity=".5"/>
    <path fill="#427326" fill-rule="evenodd" stroke="#6a9a4a" stroke-width=".25" d="M181.41049 668.76044c28.53499 15.68882 40.67497 28.15793 56.53866 42.87203" filter="url(#U)" opacity=".5"/>
    <path fill="#427326" fill-rule="evenodd" stroke="#6a9a4a" stroke-width=".25" d="M206.87161 674.00243c25.69218 16.37236 34.10666 27.24917 50.3606 41.37433" filter="url(#V)" opacity=".5"/>
    <path fill="#427326" fill-rule="evenodd" stroke="#6a9a4a" stroke-width=".25" d="M230.6478 679.99329c19.21487 13.2298 30.49643 26.45959 44.18254 39.68939" filter="url(#W)" opacity=".5"/>
    <path fill="#427326" fill-rule="evenodd" stroke="#6a9a4a" stroke-width=".25" d="M254.04957 688.60514c14.1387 11.44992 27.04623 23.31022 38.19168 35.75789" filter="url(#X)" opacity=".5"/>
    <path fill="#427326" fill-rule="evenodd" stroke="#6a9a4a" stroke-width=".25" d="M276.70248 701.14848c19.61046 11.84122 24.17169 18.66603 32.57526 26.77162" filter="url(#Y)" opacity=".5"/>
    <path fill="#45792a" fill-rule="evenodd" stroke="#77ad4b" stroke-width=".25" d="M68.145942 684.112c18.071948 7.41046 29.4747 6.80864 40.063818 2.24657" filter="url(#Z)" opacity=".5"/>
    <path fill="#45792a" fill-rule="evenodd" stroke="#77ad4b" stroke-width=".25" d="M87.990639 698.7147c28.653361 1.38456 42.323151-1.5119 53.730451-5.05478" filter="url(#aa)" opacity=".5"/>
    <path fill="#45792a" fill-rule="evenodd" stroke="#77ad4b" stroke-width=".25" d="M108.77141 709.01148c11.81456-.25894 30.55826-3.73498 56.35145-10.484" filter="url(#ab)" opacity=".5"/>
    <path fill="#45792a" fill-rule="evenodd" stroke="#77ad4b" stroke-width=".25" d="M126.36953 715.56397c42.68943.88649 49.62861-5.77038 67.5843-10.48399" filter="url(#ac)" opacity=".5"/>
    <path fill="#45792a" fill-rule="evenodd" stroke="#77ad4b" stroke-width=".25" d="M145.65259 727.54567c26.46681-3.42744 53.08603-6.48906 77.13222-15.72598" filter="url(#ad)" opacity=".5"/>
    <path fill="#45792a" fill-rule="evenodd" stroke="#77ad4b" stroke-width=".25" d="M169.99043 736.53195c27.36827-5.71475 48.43753-13.9491 71.14136-21.52962" filter="url(#ae)" opacity=".5"/>
    <path fill="#45792a" fill-rule="evenodd" stroke="#77ad4b" stroke-width=".25" d="M195.26433 741.96116c33.38083-12.42804 47.15034-15.99936 66.08659-21.90405" filter="url(#af)" opacity=".5"/>
    <path fill="#45792a" fill-rule="evenodd" stroke="#77ad4b" stroke-width=".25" d="M220.91267 743.08445c25.48225-8.1839 42.69762-13.32906 59.15967-20.21913" filter="url(#ag)" opacity=".5"/>
    <path fill="#45792a" fill-rule="evenodd" stroke="#77ad4b" stroke-width=".25" d="M249.182 741.39952c13.30233-4.20529 25.15584-8.23966 45.49304-14.78991" filter="url(#ah)" opacity=".5"/>
    <path fill="#45792a" fill-rule="evenodd" stroke="#77ad4b" stroke-width=".25" d="M285.87597 737.84245c6.82296-2.43378 15.33319-4.86757 23.58898-7.30135" filter="url(#ai)" opacity=".5"/>
    <path fill="none" stroke="url(#aj)" d="m34.94842 363.18993 62.748299 54.27596 117.553771 138.9994 142.44129 176.86018"/>
    <path fill="#527d44" fill-rule="evenodd" stroke="#000" stroke-width=".25" d="M96.637676 397.34407c11.554664 15.50552 24.617454 31.27718 24.622754 44.74457" filter="url(#ak)" opacity=".62406018"/>
    <path fill="#527d44" fill-rule="evenodd" stroke="#000" stroke-width=".25" d="M117.55378 411.90591c21.42208 19.97835 23.61013 39.21693 27.27035 58.51213" filter="url(#al)" opacity=".62406018"/>
    <path fill="#527d44" fill-rule="evenodd" stroke="#000" stroke-width=".25" d="M143.50033 428.8506c25.6268 47.82733 17.61751 47.74871 22.2399 65.66067" filter="url(#am)" opacity=".62406018"/>
    <path fill="#527d44" fill-rule="evenodd" stroke="#000" stroke-width=".25" d="M164.15167 441.0296c8.61397 20.34492 21.39316 27.59914 20.9161 76.51586" filter="url(#an)" opacity=".62406018"/>
    <path fill="#527d44" fill-rule="evenodd" stroke="#000" stroke-width=".25" d="M187.98014 457.97429c17.26191 40.41961 18.71394 63.65456 20.12181 86.84152" filter="url(#ao)" opacity=".62406018"/>
    <path fill="#527d44" fill-rule="evenodd" stroke="#000" stroke-width=".25" d="M207.83719 475.97802c15.86812 40.75122 16.9896 66.14135 16.15041 89.48913" filter="url(#ap)" opacity=".62406018"/>
    <path fill="#527d44" fill-rule="evenodd" stroke="#000" stroke-width=".25" d="M226.63521 494.51127c13.24027 43.25854 15.58579 70.62891 11.91423 89.22437" filter="url(#aq)" opacity=".62406018"/>
    <path fill="#527d44" fill-rule="evenodd" stroke="#000" stroke-width=".25" d="M246.75702 523.63495c5.26313 30.16469 12.66378 63.00127 7.14854 79.69299" filter="url(#ar)" opacity=".62406018"/>
    <path fill="#527d44" fill-rule="evenodd" stroke="#000" stroke-width=".25" d="M259.20078 537.93203c7.43474 31.15021 11.44556 59.30449 13.23804 85.51773" filter="url(#as)" opacity=".62406018"/>
    <path fill="#527d44" fill-rule="evenodd" stroke="#000" stroke-width=".25" d="M276.67499 563.87859c4.51716 26.15527 5.62635 50.18055 4.50093 72.80921" filter="url(#at)" opacity=".62406018"/>
    <path fill="#527d44" fill-rule="evenodd" stroke="#000" stroke-width=".25" d="M289.11875 584.79469c2.69694 20.97659 6.15536 37.89196 6.88378 69.36732" filter="url(#au)" opacity=".62406018"/>
    <path fill="#537f37" fill-rule="evenodd" stroke="#3d6824" stroke-linecap="round" stroke-width=".25" d="M121.52519 444.20673c-10.27159-1.22694-19.79951-8.40325-29.388447-15.09137" filter="url(#av)" opacity=".40977448"/>
    <path fill="#5e8e42" fill-rule="evenodd" stroke="#3d6824" stroke-linecap="round" stroke-width=".25" d="M171.82973 501.39505c-23.21401-1.52545-45.47833-21.09506-68.04351-34.94842" filter="url(#aw)" opacity=".40977448"/>
    <path fill="#5e8e42" fill-rule="evenodd" stroke="#3d6824" stroke-linecap="round" stroke-width=".25" d="M191.42203 528.66541c-24.88354-5.56088-50.13203-19.15053-75.72158-40.24364" filter="url(#ax)" opacity=".40977448"/>
    <path fill="#5e8e42" fill-rule="evenodd" stroke="#3d6824" stroke-linecap="round" stroke-width=".25" d="M209.161 549.58151c-30.28552-3.33059-54.23357-24.40606-81.28155-36.80175" filter="url(#ay)" opacity=".40977448"/>
    <path fill="#5e8e42" fill-rule="evenodd" stroke="#3d6824" stroke-linecap="round" stroke-width=".25" d="M225.3114 571.02713c-48.11148-7.63193-58.85697-24.9067-87.37105-37.59603" filter="url(#az)" opacity=".40977448"/>
    <path fill="#5e8e42" fill-rule="evenodd" stroke="#3d6824" stroke-linecap="round" stroke-width=".25" d="M244.37418 594.32607c-34.59663-2.11197-65.11664-24.60705-97.1672-39.44935" filter="url(#aA)" opacity=".40977448"/>
    <path fill="#5e8e42" fill-rule="evenodd" stroke="#3d6824" stroke-linecap="round" stroke-width=".25" d="M259.7303 613.65361c-37.53361-4.36101-66.9337-24.98904-100.07956-38.12555" filter="url(#aB)" opacity=".40977448"/>
    <path fill="#5e8e42" fill-rule="evenodd" stroke="#3d6824" stroke-linecap="round" stroke-width=".25" d="M273.76262 631.39258c-35.34429-6.60012-66.78112-22.9689-99.55004-36.00746" filter="url(#aC)" opacity=".40977448"/>
    <path fill="#5e8e42" fill-rule="evenodd" stroke="#3d6824" stroke-linecap="round" stroke-width=".25" d="M286.20638 647.27823c-30.87452-6.2774-60.86383-18.75124-91.0777-29.65321" filter="url(#aD)" opacity=".40977448"/>
    <path fill="#5e8e42" fill-rule="evenodd" stroke="#3d6824" stroke-linecap="round" stroke-width=".25" d="M291.76635 654.95629c-16.16116-.43111-42.39684-7.09884-73.33873-16.67993" filter="url(#aE)" opacity=".40977448"/>
    <path fill="#3d7026" fill-rule="evenodd" stroke="#3d6824" stroke-linecap="round" stroke-width=".25" d="M303.94535 669.78289c-22.51053-4.11069-43.67601-10.01476-64.07211-16.94469" filter="url(#aF)" opacity=".40977448"/>
    <path fill="#41732f" fill-rule="evenodd" stroke="#3d6824" stroke-linecap="round" stroke-width=".25" d="M314.27102 681.43236c-18.03852-2.82668-35.61815-7.94781-52.95215-14.29708" filter="url(#aG)" opacity=".40977448"/>
    <path fill="#4c822a" fill-rule="evenodd" stroke="#3d6824" stroke-linecap="round" stroke-width=".25" d="M322.74336 693.08184c-14.38032-4.96827-27.17422-8.87895-39.44935-12.44376" filter="url(#aH)" opacity=".40977448"/>
    <path fill="#5f8e42" fill-rule="evenodd" stroke="url(#aI)" d="M363.25176 733.59023c5.82529-185.37231 16.05799-364.76541 10.06091-562.35184" opacity=".30827068"/>
    <path fill="#3c6928" fill-rule="evenodd" stroke="#578a3a" d="M367.68854 688.79235c2.99611-.37592 12.61855-15.32978 20.21913-25.83555" filter="url(#aJ)" opacity=".95488724"/>
    <path fill="#3c6928" fill-rule="evenodd" stroke="#578a3a" d="M367.68854 674.18965c12.12687-12.51016 24.82522-27.59194 38.94054-49.0501" filter="url(#aK)" opacity=".95488724"/>
    <path fill="#3c6928" fill-rule="evenodd" stroke="#578a3a" d="M368.4374 657.71481c11.08883-11.30964 24.23231-27.7559 39.31497-49.05011" filter="url(#aL)" opacity=".95488724"/>
    <path fill="#3c6928" fill-rule="evenodd" stroke="#578a3a" d="M367.31411 642.73768c13.05053-14.7434 33.8102-44.90507 54.66653-75.26008" filter="url(#aM)" opacity=".95488724"/>
    <path fill="#3c6928" fill-rule="evenodd" stroke="#578a3a" d="M405.88022 570.47302c-13.84872 23.86772-27.08194 43.73464-38.94053 54.66653" filter="url(#aN)" opacity=".95488724"/>
    <path fill="#518140" fill-rule="evenodd" stroke="#578a3a" d="M367.31411 602.67385c14.85232-10.22126 29.70465-40.02873 44.55697-60.28295" filter="url(#aO)" opacity=".95488724"/>
    <path fill="#518140" fill-rule="evenodd" stroke="#578a3a" d="M368.06297 576.8383c20.25712-18.47709 39.05033-55.9851 58.41081-86.11849" filter="url(#aP)" opacity=".95488724"/>
    <path fill="#518140" fill-rule="evenodd" stroke="#578a3a" d="M369.18626 552.12604c13.83464-13.04738 25.95331-32.10068 37.81725-52.04553" filter="url(#aQ)" opacity=".95488724"/>
    <path fill="#518140" fill-rule="evenodd" stroke="#578a3a" d="M369.93511 525.1672c18.05548-15.72936 34.93775-45.53729 52.04553-72.63908" filter="url(#aR)" opacity=".95488724"/>
    <path fill="#4a762f" fill-rule="evenodd" stroke="#578a3a" d="M369.56068 504.19922c16.05219-13.23272 30.95379-41.4231 46.05468-67.02265" filter="url(#aS)" opacity=".95488724"/>
    <path fill="#4a762f" fill-rule="evenodd" stroke="#578a3a" d="M371.43283 468.62854c14.68895-13.12777 30.38996-33.84606 49.0501-76.75779" filter="url(#aT)" opacity=".95488724"/>
    <path fill="#4a762f" fill-rule="evenodd" stroke="#578a3a" d="M371.43283 442.79299c13.15727-12.62345 26.71737-28.26814 43.8081-70.39251" filter="url(#aU)" opacity=".95488724"/>
    <path fill="#4a762f" fill-rule="evenodd" stroke="#578a3a" d="M374.05382 412.08987c11.67148-13.62553 22.88692-29.75931 32.57526-54.29209" filter="url(#aV)" opacity=".95488724"/>
    <path fill="#4a762f" fill-rule="evenodd" stroke="#578a3a" d="M373.6794 384.38218c13.90485-18.5918 25.27317-40.08248 32.20082-66.64823" filter="url(#aW)" opacity=".95488724"/>
    <path fill="#4a762f" fill-rule="evenodd" stroke="#578a3a" d="M376.30039 344.69279c14.28205-15.01265 17.30265-35.65602 24.33784-54.2921" filter="url(#aX)" opacity=".95488724"/>
    <path fill="#4f8330" fill-rule="evenodd" stroke="#578a3a" d="M376.67482 322.60152c6.47788-11.18128 12.71547-23.80432 17.2237-46.80353" filter="url(#aY)" opacity=".95488724"/>
    <path fill="#598b46" fill-rule="evenodd" stroke="#3e622c" d="M365.8164 672.31751c-8.66073-8.11785-16.92062-18.23983-25.08669-28.83098" filter="url(#aZ)" opacity=".55639098"/>
    <path fill="#598b46" fill-rule="evenodd" stroke="#3e622c" d="M365.44197 657.71481c-11.77149-11.29193-25.38726-31.19049-38.56611-49.05011" filter="url(#ba)" opacity=".55639098"/>
    <path fill="#598b46" fill-rule="evenodd" stroke="#3e622c" d="M366.19083 640.86553c-14.27664-7.47607-26.84195-28.64277-39.68939-47.55238" filter="url(#bb)" opacity=".55639098"/>
    <path fill="#598b46" fill-rule="evenodd" stroke="#3e622c" d="M365.06755 624.76512c-15.1402-16.65667-28.51644-26.08109-48.30125-61.78066" filter="url(#bc)" opacity=".55639098"/>
    <path fill="#598b46" fill-rule="evenodd" stroke="#3e622c" d="M364.69312 605.66928c-23.14557-15.71588-38.131-51.1521-55.78981-80.12765" filter="url(#bd)" opacity=".55639098"/>
    <path fill="#598b46" fill-rule="evenodd" stroke="#3e622c" d="M364.31869 593.68757c-22.07505-21.30931-36.71936-60.13396-52.04553-97.35134" filter="url(#be)" opacity=".55639098"/>
    <path fill="#598b46" fill-rule="evenodd" stroke="#3e622c" d="M365.8164 565.97988c-26.02529-13.51905-34.94499-60.43475-51.6711-92.10935" filter="url(#bf)" opacity=".55639098"/>
    <path fill="#426c30" fill-rule="evenodd" stroke="#64974a" stroke-linecap="round" d="M366.19083 541.26762c-25.31854-22.78836-33.76678-61.60351-50.17339-92.85821" filter="url(#bg)" opacity=".54135341"/>
    <path fill="#598b46" fill-rule="evenodd" stroke="#3e622c" d="M365.8164 512.81107c-19.49093-13.93541-32.0558-60.96201-47.55239-93.98149" filter="url(#bh)" opacity=".55639098"/>
    <path fill="#598b46" fill-rule="evenodd" stroke="#3e622c" d="M368.81183 484.35452c-22.35205-16.76039-31.89648-57.38953-43.80811-93.60706" filter="url(#bi)" opacity=".55639098"/>
    <path fill="#426c30" fill-rule="evenodd" stroke="#64974a" stroke-linecap="round" d="M369.56068 456.27241c-22.38946-12.50859-28.23193-58.11118-39.68939-92.48378" filter="url(#bj)" opacity=".54135341"/>
    <path fill="#598b46" fill-rule="evenodd" stroke="#3e622c" d="M372.55611 428.93914c-16.99592-15.55465-26.86822-53.07378-38.19168-86.11849" filter="url(#bk)" opacity=".55639098"/>
    <path fill="#598b46" fill-rule="evenodd" stroke="#3e622c" d="M373.6794 402.35474c-13.13239-15.68743-22.77886-46.86782-31.45198-82.37422" filter="url(#bl)" opacity=".55639098"/>
    <path fill="#598b46" fill-rule="evenodd" stroke="#3e622c" d="M375.55154 367.90734c-7.77227-14.21548-12.61578-1.82807-25.83555-65.52495" filter="url(#bm)" opacity=".55639098"/>
    <path fill="#598b46" fill-rule="evenodd" stroke="#3e622c" d="M375.55154 335.33208c-10.38273-3.75936-13.15963-34.8997-19.09584-54.66652" filter="url(#bn)" opacity=".55639098"/>
    <path fill="none" stroke="url(#bo)" stroke-width="3" d="M374.05382 729.60503c57.78676-61.28142 102.50419-110.94567 173.36028-183.84427 57.99589-61.67454 115.45306-137.93111 170.73929-213.04968" filter="url(#bp)" opacity=".7180451"/>
    <path fill="#467727" fill-rule="evenodd" stroke="#305922" stroke-width=".5" d="M411.87108 688.79235c3.48136-16.0605 8.33743-36.24515 12.73056-55.04095" filter="url(#bq)" opacity=".91353383"/>
    <path fill="#467727" fill-rule="evenodd" stroke="#305922" stroke-width=".5" d="M424.22721 673.44079c3.15582-16.11688 6.35001-32.92453 10.48399-66.64823" filter="url(#br)" opacity=".91353383"/>
    <path fill="#467727" fill-rule="evenodd" stroke="#305922" stroke-width=".5" d="M435.46006 664.45451c1.1964-13.46202 7.85833-49.87922 13.85384-83.4975" filter="url(#bs)" opacity=".91353383"/>
    <path fill="#467727" fill-rule="evenodd" stroke="#305922" stroke-width=".5" d="M448.56505 649.85181c-1.00393-6.1535 1.38075-27.55579 6.36528-60.65737" filter="url(#bt)" opacity=".91353383"/>
    <path fill="#467727" fill-rule="evenodd" stroke="#305922" stroke-width=".5" d="M461.29561 637.12125c3.2878-28.61043 7.62992-58.45091 16.84927-93.98149" filter="url(#bu)" opacity=".91353383"/>
    <path fill="#467727" fill-rule="evenodd" stroke="#305922" stroke-width=".5" d="M481.51473 613.9067c-2.16288-24.54634 7.85126-61.2697 19.47027-99.59792" filter="url(#bv)" opacity=".37969929"/>
    <path fill="#467727" fill-rule="evenodd" stroke="#305922" stroke-width=".5" d="M495.36858 599.304c.25109-25.3552 8.42059-56.36639 15.35156-86.49293" filter="url(#bw)" opacity=".91353383"/>
    <path fill="#467727" fill-rule="evenodd" stroke="#305922" stroke-width=".5" d="M515.5877 579.4593c5.03993-30.45284 3.05634-50.7606 24.71227-105.21434" filter="url(#bx)" opacity=".37969929"/>
    <path fill="#467727" fill-rule="evenodd" stroke="#305922" stroke-width=".5" d="M539.55111 553.99818c-3.63453-16.00892 5.76602-50.1536 25.08669-98.1002" filter="url(#by)" opacity=".37969929"/>
    <path fill="#467727" fill-rule="evenodd" stroke="#305922" stroke-width=".5" d="M562.01681 526.66492c-9.16599-4.77001 13.76059-53.30262 24.33783-84.99522" filter="url(#bz)" opacity=".37969929"/>
    <path fill="#467727" fill-rule="evenodd" stroke="#305922" stroke-width=".5" d="M584.4825 497.83394c-5.30519-6.94667 12.99052-45.36121 20.96798-70.01808" filter="url(#bA)" opacity=".91353383"/>
    <path fill="#467727" fill-rule="evenodd" stroke="#305922" stroke-width=".5" d="M605.45048 471.99839c1.25605-14.0828 13.50103-37.93354 23.21455-59.53409" filter="url(#bB)" opacity=".91353383"/>
    <path fill="#467727" fill-rule="evenodd" stroke="#305922" stroke-width=".5" d="M631.66046 439.79756c2.52075-10.00932 12.07579-27.05291 22.4657-44.93139" filter="url(#bC)" opacity=".91353383"/>
    <path fill="#4a762d" fill-rule="evenodd" stroke="#315821" stroke-linecap="round" stroke-width=".5" d="M407.37794 695.53206c13.12283-2.97758 26.69163-5.5092 40.81268-7.48857" filter="url(#bD)" opacity=".69548837"/>
    <path fill="#4a762d" fill-rule="evenodd" stroke="#315821" stroke-linecap="round" stroke-width=".5" d="M417.4875 684.29921c19.11931-2.94101 37.64882-4.11266 57.66195-9.73513" filter="url(#bE)" opacity=".69548837"/>
    <path fill="#4a762d" fill-rule="evenodd" stroke="#315821" stroke-linecap="round" stroke-width=".5" d="M426.47378 673.81522c23.33646-1.86882 45.26614-2.12991 75.26008-11.60728" filter="url(#bF)" opacity=".69548837"/>
    <path fill="#4a762d" fill-rule="evenodd" stroke="#315821" stroke-linecap="round" stroke-width=".5" d="M438.45548 662.20794c25.11731-3.17275 45.52984-2.1112 79.75322-13.47941" filter="url(#bG)" opacity=".69548837"/>
    <path fill="#4a762d" fill-rule="evenodd" stroke="#315821" stroke-linecap="round" stroke-width=".5" d="M446.31848 654.71938c29.65078-5.74856 59.03364-11.26746 95.4792-22.84012" filter="url(#bH)" opacity=".69548837"/>
    <path fill="#4a762d" fill-rule="evenodd" stroke="#315821" stroke-linecap="round" stroke-width=".5" d="M460.54675 638.24454c23.70233-.05661 57.13229-10.92169 89.48835-20.59356" filter="url(#bI)" opacity=".37969929"/>
    <path fill="#4a762d" fill-rule="evenodd" stroke="#315821" stroke-linecap="round" stroke-width=".5" d="M472.15403 627.01169c34.95309-2.89323 73.44239-18.16314 112.32847-34.82183" filter="url(#bJ)" opacity=".37969929"/>
    <path fill="#4a762d" fill-rule="evenodd" stroke="#315821" stroke-linecap="round" stroke-width=".5" d="M492.74758 603.42271c17.54072-.68945 29.42101 2.01736 109.70748-36.31954" filter="url(#bK)" opacity=".37969929"/>
    <path fill="#4a762d" fill-rule="evenodd" stroke="#315821" stroke-linecap="round" stroke-width=".5" d="M517.08542 578.33602c33.40059.09253 61.67587-16.47218 91.36049-28.45655" filter="url(#bL)" opacity=".37969929"/>
    <path fill="#4a762d" fill-rule="evenodd" stroke="#315821" stroke-linecap="round" stroke-width=".5" d="M538.42783 556.24475c26.99588.51976 57.84006-16.27786 88.73949-33.32412" filter="url(#bM)" opacity=".37969929"/>
    <path fill="#4a762d" fill-rule="evenodd" stroke="#315821" stroke-linecap="round" stroke-width=".5" d="M557.52367 533.0302c18.0735-.65662 39.66132-5.70615 77.50664-31.07755" filter="url(#bN)" opacity=".37969929"/>
    <path fill="#4a762d" fill-rule="evenodd" stroke="#315821" stroke-linecap="round" stroke-width=".5" d="M577.74279 509.06679c22.97014-.54092 47.7019-15.17475 72.63908-31.45197" filter="url(#bO)" opacity=".69548837"/>
    <path fill="#4a762d" fill-rule="evenodd" stroke="#315821" stroke-linecap="round" stroke-width=".5" d="M595.34092 488.47324c23.45888.57642 44.73506-18.49145 66.2738-35.19626" filter="url(#bP)" opacity=".37969929"/>
    <path fill="#4a762d" fill-rule="evenodd" stroke="#315821" stroke-linecap="round" stroke-width=".5" d="M609.94362 467.50525c19.8447-.85593 39.68939-17.77823 59.53409-36.31954" filter="url(#bQ)" opacity=".69548837"/>
    <path fill="#4a762d" fill-rule="evenodd" stroke="#315821" stroke-linecap="round" stroke-width=".5" d="M637.27688 434.18114c12.79016 2.44569 24.8991-7.37064 36.69397-22.84012" filter="url(#bR)" opacity=".69548837"/>
    <path fill="#4f7f32" fill-rule="evenodd" stroke="#2d5315" d="M375.92596 737.84245c51.27384-4.68796 103.29795-11.17657 159.50644-27.70769 64.55076-19.72384 128.2864-39.91346 199.57026-55.78981" filter="url(#bS)" opacity=".47368421"/>
    <path fill="#4e7f31" fill-rule="evenodd" stroke="#5a8d39" d="M407.37794 731.47717c2.76689-3.11254 17.41787-10.68161 27.33326-16.47484" filter="url(#bT)" opacity=".84586463"/>
    <path fill="#4e7f31" fill-rule="evenodd" stroke="#5a8d39" d="M423.85278 730.35389c3.8359-4.14872 23.63379-17.87464 36.31954-27.33327" filter="url(#bU)" opacity=".84586463"/>
    <path fill="#4e7f31" fill-rule="evenodd" stroke="#5a8d39" d="M444.07191 726.98403c7.56928-8.80517 22.47531-20.05592 38.94053-31.8264" filter="url(#bV)" opacity=".84586463"/>
    <path fill="#4e7f31" fill-rule="evenodd" stroke="#5a8d39" d="M465.41432 720.99318c9.34723-10.72976 28.02445-24.12523 43.8081-36.69397" filter="url(#bW)" opacity=".84586463"/>
    <path fill="#4e7f31" fill-rule="evenodd" stroke="#5a8d39" d="M482.26359 719.8699c9.43644-12.48579 35.84385-31.14284 55.04095-47.17796" filter="url(#bX)" opacity=".84586463"/>
    <path fill="#4e7f31" fill-rule="evenodd" stroke="#5a8d39" d="M508.47357 713.87904c6.42427-15.85079 35.16935-31.70159 57.28752-47.55238" filter="url(#bY)" opacity=".84586463"/>
    <path fill="#4e7f31" fill-rule="evenodd" stroke="#5a8d39" d="M536.55568 708.26262c2.71327-13.74162 34.25367-31.41421 57.28753-47.92682" filter="url(#bZ)" opacity=".84586463"/>
    <path fill="#4e7f31" fill-rule="evenodd" stroke="#5a8d39" d="M565.76109 701.89734c4.25481-11.57322 23.83908-27.12075 55.04095-45.68025" filter="url(#ca)" opacity=".84586463"/>
    <path fill="#4e7f31" fill-rule="evenodd" stroke="#5a8d39" d="M597.96192 689.16678c-1.52041-8.37682 27.60832-21.13209 44.93139-32.20083" filter="url(#cb)" opacity=".84586463"/>
    <path fill="#42712d" fill-rule="evenodd" stroke="#46772d" d="M404.00808 734.4726c9.52572 4.53544 16.75504 10.21909 31.82641 11.9817" filter="url(#cc)" opacity=".52255638"/>
    <path fill="#42712d" fill-rule="evenodd" stroke="#46772d" d="M417.11307 730.72831c13.29212 8.63528 27.85769 16.79303 49.0501 22.4657" filter="url(#cd)" opacity=".52255638"/>
    <path fill="#42712d" fill-rule="evenodd" stroke="#46772d" d="M433.21349 728.85617c16.24502 9.02087 29.23213 19.81877 55.78981 23.21455" filter="url(#ce)" opacity=".52255638"/>
    <path fill="#42712d" fill-rule="evenodd" stroke="#46772d" d="M452.30933 725.48632c18.30292 11.79084 38.6249 20.88958 62.90394 24.71226" filter="url(#cf)" opacity=".52255638"/>
    <path fill="#42712d" fill-rule="evenodd" stroke="#46772d" d="M475.52388 725.11189c17.5191 12.18043 44.05959 18.11528 74.51122 21.34241" filter="url(#cg)" opacity=".52255638"/>
    <path fill="#42712d" fill-rule="evenodd" stroke="#46772d" d="M497.61515 721.74204c19.6526 10.86285 46.91002 14.81224 77.50664 15.72598" filter="url(#ch)" opacity=".52255638"/>
    <path fill="#42712d" fill-rule="evenodd" stroke="#46772d" d="M520.08084 716.12561c12.02946 7.93989 43.76265 8.98347 75.26008 10.10957" filter="url(#ci)" opacity=".52255638"/>
    <path fill="#42712d" fill-rule="evenodd" stroke="#46772d" d="M558.27252 705.26719c15.52726 6.29591 40.11927 5.79326 63.27838 6.36528" filter="url(#cj)" opacity=".52255638"/>
    <path fill="#42712d" fill-rule="evenodd" stroke="#46772d" d="M587.47793 696.65534c17.59608 5.18675 37.40051 2.64429 56.91309 1.12329" filter="url(#ck)" opacity=".52255638"/>
    <path fill="#42712d" fill-rule="evenodd" stroke="#46772d" d="M619.30433 685.79692c8.43499 7.02319 27.20838 1.12338 43.05925-1.12328" filter="url(#cl)" opacity=".52255638"/>
    <path fill="#2a5410" fill-opacity=".40148698" fill-rule="evenodd" stroke="#467a29" d="m370.68397 740.83788 137.7896 70.01808c41.69166 17.10953 70.16071 44.45035 86.49292 61.40623" filter="url(#cm)" opacity=".58999999"/>
    <path fill="none" stroke="#3c6e20" d="M383.0401 748.70087c16.94153 22.89983 25.58918 29.21189 37.0684 41.18711" filter="url(#cn)" opacity=".8"/>
    <path fill="none" stroke="#3c6e20" d="M401.76151 756.93829c15.35156 19.80061 30.70312 32.81942 46.05468 49.0501" filter="url(#co)" opacity=".8"/>
    <path fill="none" stroke="#3c6e20" d="M435.83449 774.91085c12.78958 17.31813 20.93776 27.21003 28.83097 36.69397" filter="url(#cp)" opacity=".8"/>
    <path fill="none" stroke="#3c6e20" d="M454.5559 782.77384c9.4564 14.37637 19.68073 28.1384 34.07297 38.56611" filter="url(#cq)" opacity=".8"/>
    <path fill="none" stroke="#3c6e20" d="M485.25901 798.87426c5.07886 10.9223 12.95223 17.18708 20.96799 23.21455" filter="url(#cr)" opacity=".8"/>
    <path fill="#2c5b13" fill-rule="evenodd" stroke="#3a6d24" d="M396.89395 753.94287c4.77696-3.55108 12.53281-1.14437 19.09584-1.12329" filter="url(#cs)" opacity=".5"/>
    <path fill="#2c5b13" fill-rule="evenodd" stroke="#3c6e20" d="M408.87565 759.18486c7.67067-.90067 20.01093.0665 32.57526 1.12329" filter="url(#ct)" opacity=".8"/>
    <path fill="#2c5b13" fill-rule="evenodd" stroke="#3a6d24" d="M424.60164 767.42228c10.79825-1.26097 27.02819-.10785 46.80353 2.621" filter="url(#cu)" opacity=".5"/>
    <path fill="#2c5b13" fill-rule="evenodd" stroke="#3a6d24" d="M443.32305 778.2807c13.52037-2.75702 30.1715-1.60059 51.6711 5.61643" filter="url(#cv)" opacity=".5"/>
    <path fill="#2c5b13" fill-rule="evenodd" stroke="#3a6d24" d="M475.52388 792.13455c10.0355-2.71992 24.66571-.27079 42.68482 5.99085" filter="url(#cw)" opacity=".5"/>
    <path fill="#2c5b13" fill-rule="evenodd" stroke="#3a6d24" d="M497.24072 804.49068c4.53557-4.40935 17.28773-2.9497 28.45655-2.621" filter="url(#cx)" opacity=".5"/>
    <path fill="#2c5b13" fill-rule="evenodd" stroke="#3a6d24" d="M505.85257 807.48611c10.3096-3.19203 21.67523 3.12025 32.94968 8.61185" filter="url(#cy)" opacity=".5"/>
    <path fill="none" stroke="#53b448" stroke-linecap="round" stroke-width=".5" d="M446.31848 654.71938c29.65078-5.74856 59.03364-11.26746 95.4792-22.84012" filter="url(#cz)" opacity=".39473685"/>
    <path fill="none" stroke="#53b448" stroke-linecap="round" stroke-width=".5" d="M460.54675 638.24454c23.70233-.05661 57.13229-10.92169 89.48835-20.59356" filter="url(#cA)" opacity=".39473685"/>
    <path fill="none" stroke="#53b448" stroke-linecap="round" stroke-width=".5" d="M472.15403 627.01169c34.95309-2.89323 73.44239-18.16314 112.32847-34.82183" filter="url(#cB)" opacity=".39473685"/>
    <path fill="none" stroke="#53b448" stroke-linecap="round" stroke-width=".5" d="M492.74758 603.42271c17.54072-.68945 29.42101 2.01736 109.70748-36.31954" filter="url(#cC)" opacity=".39473685"/>
    <path fill="none" stroke="#53b448" stroke-linecap="round" stroke-width=".5" d="M517.08542 578.33602c33.40059.09253 61.67587-16.47218 91.36049-28.45655" filter="url(#cD)" opacity=".39473685"/>
    <path fill="none" stroke="#53b448" stroke-linecap="round" stroke-width=".5" d="M538.42783 556.24475c26.99588.51976 57.84006-16.27786 88.73949-33.32412" filter="url(#cE)" opacity=".39473685"/>
    <path fill="none" stroke="#53b448" stroke-linecap="round" stroke-width=".5" d="M557.52367 533.0302c18.0735-.65662 39.66132-5.70615 77.50664-31.07755" filter="url(#cF)" opacity=".39473685"/>
    <path fill="none" stroke="#53b448" stroke-linecap="round" stroke-width=".5" d="M577.74279 509.06679c22.97014-.54092 47.7019-15.17475 72.63908-31.45197" filter="url(#cG)" opacity=".39473685"/>
    <path fill="none" stroke="#53b448" stroke-linecap="round" stroke-width=".5" d="M595.34092 488.47324c23.45888.57642 44.73506-18.49145 66.2738-35.19626" filter="url(#cH)" opacity=".39473685"/>
    <path fill="url(#cI)" fill-rule="evenodd" d="M363.87783 747.97639c2.49279-3.57661 3.91234-6.90138 8.62862-6.585 1.3309-.81352 2.08235-3.46533 1.02181-4.20077-1.82712 0-3.36657-.55452-5.10905-1.13534-1.54833-1.41988-2.45848-4.60161-2.72483-6.81207-18.10267-2.94091-8.82227 17.5037-1.81655 18.73318z" filter="url(#cJ)" opacity=".57894736"/>
    <path fill="none" stroke="url(#cK)" stroke-width="3" d="M363.25176 733.59023c5.82529-185.37231 16.05799-364.76541 10.06091-562.35184" opacity=".43233086"/>
  </g>
</svg>